<svg version="1.0" xmlns="http://www.w3.org/2000/svg"
 width="1685.000000pt" height="1158.000000pt" viewBox="0 0 1685.000000 1158.000000"
 preserveAspectRatio="xMidYMid meet">
<rect x="0" y="0" width="1685" height="1158" fill="#F5F6F7"/>
<g transform="translate(0.000000,1158.000000) scale(0.100000,-0.100000)"
fill="#000000" stroke="none">
<path d="M12828 9505 c-161 -82 -251 -192 -309 -374 -28 -87 -56 -121 -99
-121 -17 0 -76 18 -133 41 -401 160 -728 253 -1068 304 -223 34 -385 45 -639
45 -334 0 -446 -12 -1135 -120 -565 -89 -894 -120 -1265 -120 -444 0 -765 49
-1167 178 -35 11 -63 17 -63 12 0 -15 110 -110 180 -156 129 -83 390 -198 568
-250 293 -85 519 -117 827 -117 262 0 412 15 685 69 332 66 363 69 735 68 267
0 366 -4 462 -17 198 -28 321 -67 388 -122 19 -15 16 -16 -50 -11 -38 3 -171
9 -295 12 -386 11 -659 -24 -961 -126 -236 -79 -596 -151 -909 -182 -177 -17
-859 -17 -1170 0 -549 31 -892 75 -1325 171 -99 22 -181 38 -183 36 -13 -12
305 -182 483 -259 488 -208 1019 -312 1645 -322 146 -2 276 -4 290 -5 59 -2
-343 -68 -545 -89 -387 -41 -997 -58 -1430 -40 -688 27 -1302 -94 -1883 -371
-347 -166 -650 -375 -783 -541 l-30 -37 57 25 c32 14 96 48 142 75 341 201
781 369 1177 448 234 47 335 55 680 56 342 0 404 -4 690 -50 500 -80 619 -90
1120 -89 359 0 450 3 625 22 230 24 604 85 814 132 563 125 1192 353 1753 633
239 120 370 179 550 246 198 74 580 194 721 227 123 28 280 34 379 14 76 -15
146 -9 182 17 14 10 58 67 96 126 39 58 73 106 77 107 11 0 248 -347 269 -394
41 -94 34 -167 -24 -232 -39 -46 -96 -73 -239 -118 -303 -94 -431 -181 -488
-333 -28 -73 -52 -227 -48 -307 l3 -61 28 78 c38 105 77 167 144 226 99 88
189 128 466 206 87 25 185 56 219 70 34 14 66 25 71 25 5 0 6 -43 2 -102 l-6
-103 69 71 c90 92 135 181 140 275 5 81 -7 120 -63 219 -24 41 -56 111 -72
155 -27 79 -28 83 -31 373 -2 160 -7 292 -11 292 -5 0 -29 -22 -55 -50 -31
-33 -66 -90 -105 -172 -62 -131 -85 -167 -96 -156 -13 13 -20 121 -14 203 5
64 50 254 76 323 9 23 -31 12 -119 -33z M13790 8128 c0 -50 93 -258 163 -363
123 -184 562 -674 846 -946 324 -310 827 -809 851 -844 15 -22 29 -50 33 -63
10 -41 -13 -94 -66 -149 -51 -54 -52 -56 -52 -117 0 -111 -41 -142 -197 -152
-51 -3 -106 -11 -122 -17 -30 -11 -56 -58 -56 -101 0 -14 -13 -38 -31 -55 -50
-50 -120 -38 -153 27 -19 37 -44 145 -55 233 -13 97 -25 108 -129 108 -122 -1
-206 38 -355 164 -134 114 -250 150 -390 122 -44 -9 -107 -29 -141 -44 l-61
-27 70 -7 c206 -20 365 -104 490 -260 38 -47 94 -139 140 -228 116 -223 223
-351 342 -407 48 -22 72 -27 138 -27 107 1 160 29 280 152 75 76 97 92 130 98
80 13 171 45 218 76 90 60 162 190 213 389 22 87 26 117 22 203 -8 174 -50
238 -261 399 -406 309 -746 642 -1597 1563 -282 305 -270 292 -270 273z
M13264 7819 c-2 -4 22 -34 55 -66 74 -74 166 -123 301 -161 139 -39 149 -41
155 -32 8 13 -41 150 -62 172 -32 36 -91 58 -191 73 -113 16 -252 23 -258 14z
M11513 7570 c-110 -222 -152 -364 -160 -546 -7 -143 10 -241 64 -379 56 -145
60 -162 42 -193 -8 -15 -44 -47 -79 -71 -333 -228 -510 -362 -692 -523 -544
-482 -855 -931 -977 -1412 -17 -66 -29 -121 -28 -122 1 -1 103 124 227 279
343 428 465 569 621 722 323 316 669 516 1073 622 78 21 125 27 211 27 101 1
120 -2 225 -37 249 -80 407 -107 630 -108 215 0 371 23 607 92 105 30 321 113
337 130 6 5 -44 9 -135 9 -572 0 -1149 209 -1474 535 -105 105 -163 183 -234
316 -103 193 -150 383 -179 719 l-7 85 -72 -145z M7375 7334 c-22 -2 -96 -8
-165 -14 -594 -50 -1199 -224 -1767 -508 -206 -103 -368 -172 -563 -240 -213
-74 -272 -91 -469 -137 -564 -130 -1165 -163 -1816 -100 -485 48 -932 144
-1449 311 -76 25 -143 43 -148 42 -16 -6 187 -140 334 -221 365 -203 691 -349
981 -441 200 -64 249 -77 420 -111 692 -138 1340 -104 2102 110 382 108 726
233 1234 450 190 81 268 115 721 318 606 270 985 387 1401 432 238 25 330 38
322 46 -8 7 -180 30 -373 49 -105 11 -689 21 -765 14z M8070 5114 c-257 -37
-432 -88 -657 -191 -83 -37 -120 -59 -107 -61 12 -2 84 9 160 25 125 24 161
27 354 28 198 0 221 -2 290 -23 144 -46 255 -117 349 -225 128 -146 196 -288
325 -680 106 -322 174 -478 223 -517 14 -11 41 -22 60 -26 39 -7 55 -4 246 50
170 47 351 83 517 101 182 20 628 20 831 0 434 -43 897 -138 1439 -295 389
-113 923 -272 1099 -326 79 -25 149 -43 154 -41 17 5 -172 174 -266 237 -265
178 -879 413 -1408 539 -593 142 -1108 201 -1765 201 -380 0 -408 4 -467 69
-38 42 -56 90 -87 231 -96 435 -324 718 -673 835 -148 50 -311 75 -465 74 -70
-1 -138 -3 -152 -5z M6372 2555 c-27 -58 -1 -266 48 -393 39 -101 86 -170 180
-263 166 -165 387 -256 750 -310 192 -29 571 -31 760 -5 280 39 466 89 814
221 817 308 1558 456 2366 472 315 6 446 -5 650 -54 108 -26 267 -79 275 -92
2 -4 -51 -29 -118 -56 -280 -110 -453 -219 -632 -399 -104 -105 -225 -259
-225 -287 0 -5 25 7 56 27 78 50 359 186 474 230 207 78 291 106 830 274 91
28 169 56 175 61 24 24 -259 264 -434 367 -165 97 -395 176 -601 208 -347 54
-1002 -21 -1730 -197 -498 -121 -769 -190 -1115 -284 -315 -85 -668 -158 -910
-187 -162 -19 -601 -16 -735 5 -276 43 -461 127 -611 276 -95 95 -166 202
-215 323 -17 43 -34 81 -36 84 -3 2 -10 -7 -16 -21z"/>
</g>
</svg>